<?xml version="1.0" encoding="utf-8"?>
<!-- Generator: Adobe Illustrator 24.1.2, SVG Export Plug-In . SVG Version: 6.00 Build 0)  -->
<svg version="1.1" id="outline" xmlns="http://www.w3.org/2000/svg" xmlns:xlink="http://www.w3.org/1999/xlink" x="0px" y="0px"
	 viewBox="0 0 430 430" style="enable-background:new 0 0 430 430;" xml:space="preserve">
<style type="text/css">
	.st0{fill:#121331;}
	.st1{fill:#08A88A;}
	.st2{fill:none;stroke:#121331;stroke-width:12;stroke-linecap:round;stroke-linejoin:round;stroke-miterlimit:10;}
	.st3{fill-opacity:0;}
	.st4{fill:#08A789;}
</style>
<g>
	<path class="st0" d="M214.7,395.23c-21.2,0-41.87-4.13-61.42-12.26l-0.12-0.05c-7.23-3.01-14.78-4.97-22.53-5.87l-27.52-3.17
		c-10.6-1.22-18.59-10.19-18.59-20.86v-27.76c0-49.08,39.92-89,89-89h7.63c3.31,0,6,2.69,6,6s-2.69,6-6,6h-7.63
		c-42.46,0-77,34.54-77,77v27.76c0,4.57,3.42,8.42,7.96,8.94l27.53,3.17c8.87,1.03,17.51,3.28,25.69,6.68l0.12,0.05
		c18.17,7.56,37.28,11.37,56.89,11.37c19.72,0,38.93-3.85,57.09-11.46c7.9-3.3,16.21-5.47,24.7-6.46l29.04-3.36
		c4.55-0.52,7.97-4.37,7.97-8.94v-27.76c0-42.46-34.54-77-77-77h-7.62c-3.31,0-6-2.69-6-6s2.69-6,6-6h7.62c49.08,0,89,39.92,89,89
		v27.76c0,10.67-7.99,19.64-18.6,20.86l-29.04,3.36c-7.37,0.85-14.59,2.74-21.45,5.61C256.79,391.06,236.02,395.23,214.7,395.23z"/>
	<path class="st0" d="M215,281.82c-21.98,0-39.87-17.89-39.87-39.87v-18.93c0-3.31,2.69-6,6-6s6,2.69,6,6v18.93
		c0,15.37,12.5,27.87,27.87,27.87c15.37,0,27.88-12.5,27.88-27.87v-18.94c0-3.31,2.69-6,6-6s6,2.69,6,6v18.94
		C254.88,263.93,236.99,281.82,215,281.82z"/>
	<path class="st0" d="M215,239.57c-13.4,0-26.3-4.02-37.28-11.62c-2.97-2.06-5.76-4.35-8.3-6.8c-12.3-11.88-19.4-27.83-19.99-44.92
		l-1.39-39.92c-0.13-3.31,2.44-6.1,5.75-6.24c3.31-0.14,6.1,2.44,6.24,5.75l0.01,0.24l1.38,39.75c0.48,13.96,6.28,27,16.33,36.7
		c2.08,2.01,4.36,3.88,6.79,5.57c8.96,6.2,19.49,9.48,30.45,9.48c10.95,0,21.49-3.28,30.47-9.49c14.09-9.75,22.51-25.15,23.11-42.25
		l1.26-36.31c0.11-3.31,2.92-5.94,6.2-5.79c3.31,0.11,5.9,2.89,5.79,6.2l-1.26,36.31c-0.72,20.63-11.29,39.96-28.27,51.71
		C241.29,235.55,228.4,239.57,215,239.57z"/>
	<path class="st1" d="M275.84,145.74c-0.34,0-0.68-0.03-1.01-0.09c-2.24-0.38-4.08-2.01-4.73-4.19c-1.18-3.91-2.06-7.84-2.92-11.63
		c-3.31-14.66-6.45-28.57-25.99-44.37c-17.16,33.73-49.82,55.29-86.88,56.83c-2.39,0.09-4.5-1.2-5.55-3.17
		c-4.54-5.39-22.17-28.67-17.44-60.2c2.67-17.76,9.8-30.14,13.82-35.94c2.98-4.29,7.45-7.12,12.6-7.96
		c5.13-0.84,10.25,0.41,14.42,3.5L188,49.82c2.34,1.67,5.43,1.97,8.08,0.78c11.98-5.37,35.57-13.54,59-7.86
		c0.05,0.01,0.11,0.03,0.16,0.04c0.71,0.19,17.6,4.93,27.12,19.51c10.68,16.37,14.77,58.52-1.68,80.99
		C279.54,144.84,277.73,145.74,275.84,145.74z M160.83,46.77c-0.38,0-0.77,0.03-1.16,0.09c-1.91,0.31-3.57,1.36-4.67,2.95
		c-5.83,8.41-10.13,19.67-11.82,30.89c-3.66,24.35,9.09,43.41,13.74,49.42c34.01-2.55,62.43-23.4,76.43-56.28
		c0.71-1.67,2.14-2.93,3.89-3.42c1.75-0.49,3.63-0.17,5.11,0.89c25.28,18.01,31.49,34.93,35.19,50.17
		c4.75-18.52,1.47-42.36-5.25-52.64c-6.72-10.3-19.16-14.17-20.17-14.48c-19.92-4.78-40.59,2.44-51.15,7.17
		c-6.52,2.92-14.17,2.17-19.96-1.96l-15.88-11.33c-0.03-0.02-0.07-0.05-0.1-0.08C163.81,47.25,162.34,46.77,160.83,46.77z"/>
	<path class="st0" d="M201.05,170.57h-46.49c-3.31,0-6-2.69-6-6v-28.95c0-3.31,2.69-6,6-6h46.49c3.31,0,6,2.69,6,6v28.95
		C207.05,167.88,204.36,170.57,201.05,170.57z M160.56,158.57h34.49v-16.95h-34.49V158.57z"/>
	<path class="st0" d="M275.47,170.57h-46.49c-3.31,0-6-2.69-6-6v-28.95c0-3.31,2.69-6,6-6h46.49c3.31,0,6,2.69,6,6v28.95
		C281.47,167.88,278.79,170.57,275.47,170.57z M234.99,158.57h34.49v-16.95h-34.49V158.57z"/>
	<path class="st0" d="M228.99,153.09h-27.94c-3.31,0-6-2.69-6-6s2.69-6,6-6h27.94c3.31,0,6,2.69,6,6S232.3,153.09,228.99,153.09z"/>
	<path class="st1" d="M224.32,349.05c-1.24,0-2.48-0.38-3.55-1.17l-22-16.21c-1.53-1.13-2.44-2.92-2.44-4.83s0.91-3.7,2.44-4.83
		l22-16.21c2.67-1.97,6.42-1.4,8.39,1.27c1.97,2.67,1.4,6.42-1.27,8.39l-15.45,11.38l15.45,11.38c2.67,1.97,3.24,5.72,1.27,8.39
		C227.98,348.2,226.17,349.05,224.32,349.05z"/>
	<path class="st1" d="M286.58,349.05c-1.84,0-3.66-0.84-4.83-2.44c-1.97-2.67-1.4-6.42,1.27-8.39l15.45-11.38l-15.45-11.38
		c-2.67-1.97-3.24-5.72-1.27-8.39c1.97-2.67,5.72-3.24,8.39-1.27l22,16.21c1.53,1.13,2.44,2.92,2.44,4.83s-0.91,3.7-2.44,4.83
		l-22,16.21C289.06,348.67,287.81,349.05,286.58,349.05z"/>
	<path class="st1" d="M249.96,349.05c-0.61,0-1.24-0.09-1.85-0.29c-3.15-1.02-4.88-4.41-3.86-7.56l10.5-32.42
		c1.02-3.15,4.4-4.88,7.56-3.86c3.15,1.02,4.88,4.41,3.86,7.56l-10.5,32.42C254.84,347.43,252.49,349.05,249.96,349.05z"/>
</g>
</svg>
