<svg width="584" height="450" viewBox="0 0 584 450" fill="none" xmlns="http://www.w3.org/2000/svg">
<ellipse cx="317.695" cy="426.543" rx="73.4504" ry="14.1591" fill="#EEF3FF"/>
<ellipse cx="508.381" cy="422.561" rx="75.2203" ry="14.6016" fill="#EEF3FF"/>
<ellipse cx="97.3439" cy="426.543" rx="77.8752" ry="14.1591" fill="#EEF3FF"/>
<rect x="44.0923" y="30.8184" width="68.4504" height="102.963" stroke="#E8EBF2" stroke-width="5"/>
<path d="M51.3267 82.6281V127.432H106.193V62.8311L86.714 72.2086L78.273 62.8311L51.3267 82.6281Z" fill="#E8EBF2"/>
<rect x="131.702" y="74.1807" width="50.7515" height="67.5655" stroke="#E8EBF2" stroke-width="5"/>
<path d="M137.167 113.273V80.0874L177.874 104.423L137.167 113.273Z" fill="#E4E8F0"/>
<path d="M137.167 136.281V118.583L177.874 136.281H137.167Z" fill="#E4E8F0"/>
<rect x="60.0215" y="157.365" width="39.2473" height="41.0171" stroke="#E8EBF2" stroke-width="5"/>
<path d="M67.9861 173.103C64.4106 180.139 74.8936 186.295 79.363 188.493C85.1868 186.441 95.0463 180.491 91.1458 173.103C87.2452 165.716 81.6653 170.025 79.3628 173.103C77.6021 170.172 71.5616 166.068 67.9861 173.103Z" fill="#E8EBF2"/>
<circle cx="168.14" cy="87.6093" r="7.07956" fill="#E8EEFC"/>
<circle cx="168.14" cy="117.698" r="7.07956" fill="#E8EEFC"/>
<rect x="313.271" y="169.024" width="198.228" height="7.96451" fill="#E4E8F0"/>
<rect x="306.191" y="20.3535" width="198.228" height="7.96451" fill="#E4E8F0"/>
<rect x="306.191" y="85.8398" width="198.228" height="7.96451" fill="#E4E8F0"/>
<rect x="399.995" y="176.989" width="154.865" height="7.96451" transform="rotate(-90 399.995 176.989)" fill="#E4E8F0"/>
<path d="M290.34 8.64746C281.387 16.6454 271.688 11.9799 267.958 8.64746V200.883H334.088V8.64746C325.949 16.6454 316.453 11.9799 312.722 8.64746C301.023 18.6448 290.849 8.9331 290.34 8.64746Z" fill="#EEF3FF"/>
<path fill-rule="evenodd" clip-rule="evenodd" d="M302.04 13.1502C305.25 13.0727 308.905 11.909 312.723 8.64697C313.025 8.91721 313.366 9.19622 313.74 9.47653V200.882H302.04V13.1502ZM277.623 12.9529C281.38 13.3973 285.673 12.5724 289.832 9.08715V200.882H277.623V12.9529ZM323.914 200.882V13.063C327.208 13.0694 330.761 11.916 334.088 8.64697V200.882H323.914Z" fill="#E8EBF2"/>
<path d="M493.817 8.64746C484.864 16.6454 475.165 11.9799 471.435 8.64746V200.883H537.565V8.64746C529.426 16.6454 519.93 11.9799 516.2 8.64746C504.5 18.6448 494.326 8.9331 493.817 8.64746Z" fill="#EEF3FF"/>
<path fill-rule="evenodd" clip-rule="evenodd" d="M505.517 13.1502C508.727 13.0727 512.382 11.909 516.199 8.64697C516.502 8.91721 516.842 9.19622 517.217 9.47653V200.882H505.517V13.1502ZM481.1 12.9529C484.857 13.3973 489.149 12.5724 493.308 9.08715V200.882H481.1V12.9529ZM527.391 200.882V13.063C530.684 13.0694 534.238 11.916 537.564 8.64697V200.882H527.391Z" fill="#E8EBF2"/>
<ellipse cx="258.801" cy="6.61301" rx="3.05216" ry="6.61301" fill="#E4E8F0"/>
<ellipse cx="551.809" cy="6.61301" rx="3.05216" ry="6.61301" fill="#E4E8F0"/>
<rect x="260.836" y="4.06934" width="288.938" height="4.06954" fill="#EEF3FF"/>
<path d="M402.649 275.218H358.402V284.952H402.649V275.218Z" fill="#DBE1EF"/>
<path d="M436.845 420.708L384.865 278.45L375.307 281.785L423.781 420.719L436.845 420.708Z" fill="#DBE1EF"/>
<path d="M324.228 420.708L376.207 278.45L385.766 281.785L337.292 420.719L324.228 420.708Z" fill="#DBE1EF"/>
<path d="M182.298 275.218H138.051V284.952H182.298V275.218Z" fill="#DBE1EF"/>
<path d="M215.501 420.708L163.522 278.45L153.963 281.785L202.437 420.719L215.501 420.708Z" fill="#DBE1EF"/>
<path d="M102.884 420.708L154.863 278.45L164.422 281.785L115.948 420.719L102.884 420.708Z" fill="#DBE1EF"/>
<path d="M456.631 270.985C456.631 268.435 454.571 266.368 452.03 266.368H93.0959C90.5545 266.368 88.4942 268.435 88.4942 270.985V272.37C88.4942 274.92 90.5545 276.988 93.0959 276.988H452.03C454.571 276.988 456.631 274.92 456.631 272.37V270.985Z" fill="#E4E8F0"/>
<path d="M398.225 259.289H292.917V266.368H398.225V259.289Z" fill="#DBE1EF"/>
<path d="M406.189 213.341C406.189 210.859 404.163 208.847 401.664 208.847H331.07C328.57 208.847 326.544 210.859 326.544 213.341V266.368H406.189V213.341Z" fill="#DBE1EF"/>
<path d="M406.189 216.604C406.189 212.386 405.747 212.386 405.747 212.386H336.078C333.745 212.386 331.854 214.274 331.854 216.604V266.368H406.189V216.604Z" fill="#E8EEFC"/>
<path d="M364.597 238.05C364.597 240.005 366.38 241.59 368.579 241.59C370.779 241.59 372.562 240.005 372.562 238.05C372.562 236.095 370.779 234.51 368.579 234.51C366.38 234.51 364.597 236.095 364.597 238.05Z" fill="white"/>
<path fill-rule="evenodd" clip-rule="evenodd" d="M209.502 247.566C211.216 246.731 213.2 246.528 214.11 246.528L214.109 244.245C213.017 244.245 210.695 244.472 208.603 245.491C206.475 246.529 204.422 248.492 204.422 251.946C204.422 253.466 204.85 254.706 205.599 255.673C206.333 256.623 207.318 257.235 208.329 257.631C210.324 258.415 212.656 258.449 214.156 258.38L214.063 256.098C212.626 256.165 210.652 256.109 209.076 255.49C208.301 255.185 207.684 254.768 207.263 254.224C206.856 253.698 206.575 252.982 206.575 251.946C206.575 249.699 207.826 248.384 209.502 247.566Z" fill="#E8EEFC"/>
<path d="M232.74 238.05H213.271V256.929C213.271 262.142 217.326 266.368 222.327 266.368H223.685C228.686 266.368 232.74 262.142 232.74 256.929V238.05Z" fill="#EEF3FF"/>
<path d="M35.4162 300.526C39.3819 295.197 43.2375 285.318 43.3477 280.544L33.7639 276.881L30.1286 281.543C23.5191 283.208 16.5791 296.196 14.9268 298.194C13.2744 300.192 15.2572 304.855 19.5534 299.526C22.9904 295.264 30.0185 295.308 32.7724 295.863C32.7724 295.863 31.0163 298.445 29.4677 300.526C27.4848 303.19 30.2116 307.519 35.4162 300.526Z" fill="#6E4B40"/>
<path fill-rule="evenodd" clip-rule="evenodd" d="M14.4023 300.464C15.6185 301.867 18.6817 298.797 20.2252 296.868C21.4793 295.301 28.3245 292.95 31.5903 292.166C28.847 292.688 22.8901 294.36 21.009 295.301C19.8873 295.862 19.0331 296.869 18.2338 297.811C17.3575 298.844 16.5471 299.799 15.5223 300.004C14.6405 300.18 14.6268 299.29 14.923 298.198C14.4087 298.823 14.2486 299.707 14.4023 300.464ZM22.9243 286.93L20.6171 289.814C20.6171 290.298 19.9487 291.113 19.2376 291.982C18.1659 293.29 16.9971 294.717 17.8737 295.301C18.5807 295.772 20.8463 294.543 23.7334 292.977C25.6477 291.939 27.8352 290.752 30.0227 289.814C26.7875 289.814 23.7895 291.817 21.6536 293.244C20.1672 294.237 19.0984 294.951 18.6576 294.517C18.0993 293.968 19.1797 292.613 20.5114 290.944C21.6977 289.457 23.0834 287.72 23.6876 286.08C23.4305 286.357 23.1759 286.641 22.9243 286.93Z" fill="#543329"/>
<path d="M85.9105 368.553L108.721 347.449L98.0329 338.487L76.3834 359.319C70.8381 358.903 64.7266 364.062 61.9938 368.675C61.1765 370.055 61.5993 371.754 62.7331 372.888L86.3064 396.456C88.7104 398.86 92.563 398.997 95.132 396.771C95.137 396.766 95.1418 396.761 95.1461 396.756C98.5328 392.757 97.8443 389.844 91.5883 384.267C86.5802 379.802 85.7164 371.931 85.9105 368.553Z" fill="#6E4B40"/>
<mask id="mask0" mask-type="alpha" maskUnits="userSpaceOnUse" x="59" y="333" width="68" height="69">
<path d="M85.8797 368.543L108.69 347.44L98.0021 338.477L76.3527 359.31C70.8073 358.893 64.6958 364.052 61.963 368.665C61.1458 370.045 61.5685 371.744 62.7024 372.878L86.2756 396.446C88.6796 398.85 92.5322 398.987 95.1012 396.761C95.1063 396.756 95.1111 396.752 95.1153 396.747C98.502 392.747 97.8135 389.834 91.5575 384.257C86.5494 379.792 85.6856 371.921 85.8797 368.543Z" fill="#6E4B40"/>
</mask>
<g mask="url(#mask0)">
<path d="M86.7567 374.619C83.3958 370.794 75.5609 357.979 74.94 356.787L69.0594 357.011L56.4516 366.737L87.1962 400.903L104.279 396.737L86.7567 374.619Z" fill="#FF9D43"/>
<path d="M88.6931 385.604C82.9203 381.794 78.7505 367.533 77.3872 360.878L86.4979 374.123L98.3078 384.066C97.5083 386.166 94.466 389.414 88.6931 385.604Z" fill="white"/>
<path d="M66.5692 372.828C74.1352 368.57 70.0939 358.997 69.8352 358.501L60.4859 368.423C59.9917 371.31 60.5164 376.235 66.5692 372.828Z" fill="#EC8424"/>
<path d="M81.8404 387.597C83.9385 378.297 114.936 382.662 115.691 382.899L108.188 390.913L93.9716 401.793C90.7083 401.269 85.2893 399.377 83.2404 395.508L82.7212 395.344L76.519 391.317L58.8985 370.829C60.3531 367.966 63.6511 361.534 63.3041 364.745C62.9572 367.956 75.0929 380.907 81.8404 387.597Z" fill="#262626"/>
<path d="M87.5118 374.856C86.8219 373.533 84.0563 371.859 79.9392 371.227M88.9289 379.583C88.5513 379.464 86.8195 378.373 82.9457 378.814" stroke="black" stroke-width="2" stroke-linecap="round"/>
</g>
<path d="M57.0515 189.389C63.5631 179.652 97.1804 179.923 98.3486 180C91.3772 186.839 75.8562 200.725 69.5432 201.559C61.6521 202.601 50.54 199.127 57.0515 189.389Z" fill="#CB7500"/>
<path d="M165.911 125.054C165.645 124.299 163.523 110.933 167.842 107.29C172.161 103.648 173.225 106.667 171.989 110.498C175.275 106.37 182.364 98.3553 184.429 99.3254C186.093 100.107 184.666 102.437 183.208 104.127C186.715 100.59 187.761 101.689 189.092 102.776C190.907 104.259 196.018 110.204 185.198 117.411C176.541 123.177 176.28 127.975 175.406 129.98L165.911 125.054Z" fill="#6E4B40"/>
<path d="M61.6208 191.256C71.0438 190.707 58.0645 185.9 94.4283 180.131C87.5446 189.584 71.6224 207.954 63.003 205.819C52.2288 203.15 50.9266 193.286 55.1816 188.092C58.5856 183.937 70.0278 182.426 72.7794 182.218C67.7352 183.578 52.9386 191.762 61.6208 191.256Z" fill="#EE8F0D"/>
<path d="M87.2275 183.976C92.0832 180.915 90.0117 174.911 88.3689 172.291C92.6664 168.905 101.247 163.878 101.191 170.859C101.135 177.84 103.616 181.792 104.864 182.896C96.6372 188.443 89.6785 185.927 87.2275 183.976Z" fill="#643F34"/>
<path d="M166.557 296.348C169.743 286.083 142.22 260.803 128.061 249.446L101.512 252.988L128.061 299.89L73.6367 351.659L89.5657 370.243L89.8344 370.011C113.543 349.562 163.383 306.575 166.557 296.348Z" fill="#262626"/>
<path d="M122.468 402.555L139.703 372.398L125.299 366.431L109.211 395.909C103.159 397.326 98.3751 404.878 97.01 410.713C96.6018 412.458 97.623 414.128 99.2124 414.956L132.256 432.171C135.626 433.926 139.78 432.779 141.771 429.543C141.775 429.537 141.779 429.53 141.782 429.523C144.05 424.122 142.338 421.248 133.796 417.402C126.958 414.323 123.395 406.221 122.468 402.555Z" fill="#6E4B40"/>
<mask id="mask1" mask-type="alpha" maskUnits="userSpaceOnUse" x="94" y="362" width="71" height="74">
<path d="M122.432 402.555L139.667 372.398L125.264 366.431L109.175 395.909C103.123 397.326 98.3394 404.878 96.9744 410.713C96.5662 412.458 97.5873 414.128 99.1768 414.956L132.221 432.171C135.591 433.926 139.744 432.779 141.736 429.543C141.74 429.537 141.743 429.53 141.746 429.523C144.014 424.122 142.302 421.248 133.76 417.402C126.922 414.323 123.359 406.221 122.432 402.555Z" fill="#6E4B40"/>
</mask>
<g mask="url(#mask1)">
<path d="M125.406 408.738C120.539 405.788 107.884 394.756 106.822 393.694L100.628 395.906L90.4507 410.508L134.698 436.614L151.512 426.437L125.406 408.738Z" fill="#FF9D43"/>
<path d="M131.158 419.8C123.724 417.676 114.491 403.871 110.804 397.234L124.963 408.296L140.892 414.933C140.745 417.44 138.592 421.924 131.158 419.8Z" fill="white"/>
<path d="M103.282 413.605C109.919 406.526 102.397 397.677 101.955 397.234L95.3179 410.951C95.7604 414.195 97.9728 419.269 103.282 413.605Z" fill="#EC8424"/>
<path d="M124.521 424.224C123.636 413.605 158.149 407.853 159.034 407.853L153.724 418.915L142.22 435.287C138.565 435.824 132.152 435.625 128.669 432.189H128.061L120.097 429.976L94.4331 414.048C95.0231 410.508 96.38 402.543 97.0879 406.083C97.7959 409.623 115.082 419.357 124.521 424.224Z" fill="#262626"/>
<path d="M126.291 408.738C125.111 407.558 121.601 406.702 116.999 407.41M129.388 413.301C128.946 413.301 126.733 412.72 122.751 414.49" stroke="black" stroke-width="2" stroke-linecap="round"/>
</g>
<path d="M155.052 328.65C150.185 309.623 116.558 258.739 115.672 256.969L85.584 277.323L128.061 334.402L106.823 389.269L131.601 402.1C141.778 378.944 158.946 343.871 155.052 328.65Z" fill="#373232"/>
<path d="M104.864 182.897C97.1457 187.722 89.8905 185.627 87.2276 183.977C85.5421 185.22 79.0575 187.111 76.0259 187.901L95.3185 268.475C105.027 269.642 126.156 252.08 134.699 250.334L112.119 183.619C110.113 183.016 106.447 182.887 104.864 182.897Z" fill="white"/>
<path fill-rule="evenodd" clip-rule="evenodd" d="M107.612 182.978C106.517 182.912 105.514 182.893 104.864 182.897C97.1452 187.722 89.8899 185.627 87.2271 183.977C86.6908 184.372 85.6686 184.833 84.4263 185.304C88.9412 189.442 98.9101 194.034 107.496 183.127C107.535 183.077 107.574 183.028 107.612 182.978Z" fill="#DCE7F1"/>
<path d="M81.2091 229.273C85.627 231.851 95.3709 241.791 105.128 232.361C114.599 223.209 110.409 204.855 110.028 203.472C110.02 203.446 110.012 203.42 110.004 203.394C110.008 203.404 110.017 203.43 110.028 203.472C115.583 221.88 116.373 237.937 101.849 240.852C91.7427 242.881 81.4205 230.776 81.2091 229.273Z" fill="#DCE7F1"/>
<path d="M163.901 122.9C155.642 136.469 118.416 179.273 111.69 183.52L126.734 254.316C141.337 254.316 151.07 262.869 152.84 264.491C157.087 248.562 143.401 217.148 134.257 200.334C166.557 179.981 168.916 146.203 178.945 127.325L163.901 122.9Z" fill="#EFA641"/>
<mask id="mask2" mask-type="alpha" maskUnits="userSpaceOnUse" x="111" y="122" width="68" height="143">
<path d="M163.901 122.9C155.642 136.469 118.416 179.273 111.69 183.52L126.734 254.316C141.337 254.316 151.07 262.869 152.84 264.491C157.087 248.562 143.401 217.148 134.257 200.334C166.557 179.981 168.916 146.203 178.945 127.325L163.901 122.9Z" fill="#EFA641"/>
</mask>
<g mask="url(#mask2)">
<path d="M177.619 141.041L155.938 129.094V121.572L184.698 123.342L177.619 141.041Z" fill="#EE8F0D"/>
<path d="M132.044 260.509L115.672 178.651L109.478 182.634L124.522 260.509H132.044Z" fill="#FFC97D"/>
</g>
<path d="M28.5059 274.669C35.5853 259.182 49.8328 225.024 55.4967 215.82C61.869 200.954 71.7204 190.598 76.292 187.942L80.7168 198.563C86.6164 215.229 100.274 252.455 107.708 268.03C115.141 283.605 117.294 292.218 117.442 294.578L80.7168 284.403C80.7168 284.403 82.4884 275.998 77.6203 259.625C75.7684 253.396 71.4147 237.503 72.3106 233.961L66.8808 254.865C64.6418 263.485 60.1409 271.35 53.8437 277.648L44.4349 287.058L28.5059 274.669Z" fill="#EFA641"/>
<mask id="mask3" mask-type="alpha" maskUnits="userSpaceOnUse" x="28" y="187" width="90" height="108">
<path d="M28.5063 274.669C35.5858 259.182 49.8333 225.024 55.4972 215.82C61.8695 200.954 71.7209 190.598 76.2925 187.942L80.7172 198.563C86.6169 215.229 100.275 252.455 107.708 268.03C115.142 283.605 117.295 292.218 117.442 294.578L80.7172 284.403C80.7172 284.403 86.9119 283.074 78.5049 262.72C76.0241 256.714 71.8568 234.846 72.7527 231.305L66.8395 254.678C64.6288 263.417 60.097 271.395 53.7236 277.769L44.4354 287.058L28.5063 274.669Z" fill="#EFA641"/>
</mask>
<g mask="url(#mask3)">
<path d="M53.7273 283.076C53.2851 270.244 26.7362 263.608 23.6392 262.28V279.979L42.223 293.695C46.2052 294.433 54.0811 293.342 53.7273 283.076Z" fill="#EE8F0D"/>
<path d="M111.69 296.794L71.4253 187.503L80.2747 183.521L124.522 294.582L111.69 296.794Z" fill="#FFC97D"/>
</g>
<path d="M69.7419 159.68C66.656 156.679 60.569 149.053 60.9075 142.556C61.2461 136.058 70.0384 140.971 74.3922 144.24L75.0642 156.562L77.4415 159.532C83.0785 164.627 92.3468 174.215 84.3238 171.805C76.3009 169.395 71.2596 162.717 69.7419 159.68Z" fill="#111111"/>
<path d="M69.1107 159.286C67.9818 155.949 71.4991 155.373 73.4755 156.31C67.208 136.913 75.8958 134.981 86.3272 130.29C96.7586 125.6 104.025 136.838 106.645 145.665C109.265 154.492 111.989 168.103 98.9844 172.599C88.581 176.197 79.8855 168.429 76.9819 164.238C74.5707 164.977 70.7347 164.086 69.1107 159.286Z" fill="#6F4B40"/>
<path d="M93.9917 163.882C95.6686 165.234 99.6092 166.895 101.956 162.724" stroke="#2D2424" stroke-width="1.5" stroke-linecap="round"/>
<ellipse rx="1.31143" ry="2.29853" transform="matrix(-0.971834 0.235666 0.235666 0.971834 99.6236 151.191)" fill="#2D2424"/>
<ellipse rx="1.31143" ry="2.29853" transform="matrix(-0.971834 0.235666 0.235666 0.971834 99.6236 151.191)" fill="#2D2424"/>
<ellipse rx="1.31143" ry="2.29853" transform="matrix(-0.942955 0.332919 0.332919 0.942955 90.4017 154.564)" fill="#2D2424"/>
<path d="M101.644 146.536C101.181 145.129 98.9738 143.397 96.3074 145.727M89.7985 147.656C89.3714 147.409 85.8487 146.51 84.6513 150.657" stroke="#2D2424" stroke-width="1.5" stroke-linecap="round"/>
<path d="M96.5682 153.87C96.7815 154.178 97.7951 155.156 100.142 156.602C102.49 158.048 100.098 159.851 98.6093 160.572" stroke="#603F34" stroke-linecap="round"/>
<path d="M64.5863 146.267C63.3551 146.842 60.4282 146.989 58.5699 142.973C56.7116 138.957 59.5272 135.938 61.1673 134.93C60.8106 134.269 60.493 132.3 62.0766 129.711C63.6602 127.123 66.8026 126.963 68.1758 127.207C67.4378 125.045 67.6993 120.276 74.6494 118.492C81.5995 116.708 82.7713 119.975 82.4885 121.832C82.6582 120.718 83.6684 118.59 86.3516 118.992C88.6226 119.332 89.2609 120.353 89.3225 121.038C89.494 119.066 90.9701 116.005 95.8658 117.341C102.343 119.11 104.592 121.612 102.2 124.558C105.262 125.472 108.11 129.75 102.482 132.462C103.24 134.741 102.956 138.959 95.752 137.606C92.7196 141.748 84.9897 148.801 78.3288 143.883C75.6489 147.963 69.1487 154.152 64.5863 146.267Z" fill="#282828"/>
<path d="M373.847 173.333L417.435 181.524L421.726 128.982L382.266 112.709L373.847 173.333Z" fill="#E2962D"/>
<path d="M384.628 111.544C386.219 111.853 389.603 112.492 390.405 112.579L414.535 180.194L376.589 172.412L384.628 111.544Z" fill="#D8E9F0"/>
<path d="M388.86 109.976L396.536 112.233L411.768 179.489L378.216 172.389L388.86 109.976Z" fill="#EAF1F4"/>
<mask id="mask4" mask-type="alpha" maskUnits="userSpaceOnUse" x="357" y="108" width="81" height="82">
<path d="M388.86 109.976L396.536 112.233L411.768 179.489L378.216 172.389L388.86 109.976Z" fill="#EAF1F4"/>
</mask>
<g mask="url(#mask4)">
<path d="M406.859 177.939L378.815 170.625L393.988 109.517L395.236 109.246L406.859 177.939Z" fill="#BADAE8" fill-opacity="0.5"/>
</g>
<path d="M396.347 108.35C407.737 113.176 430.871 122.949 432.281 123.427L417.435 181.524L380.929 169.837L390.286 128.61L388.865 128.086C387.445 127.563 386.638 126.064 386.981 124.59L388.749 117.001C389.124 115.394 390.726 114.391 392.335 114.757L394.58 115.266L396.347 108.35Z" fill="#FFB754"/>
<path fill-rule="evenodd" clip-rule="evenodd" d="M424.114 155.391L421.871 164.169C420.306 162.383 418.772 158.338 418.125 156.27C416.019 156.12 411.805 155.367 411.805 153.561C411.805 151.755 416.019 150.702 418.125 150.401L424.114 155.391Z" fill="#F8A534"/>
<path d="M431.795 163.522C430.661 158.205 428.01 150.045 421.609 150.091C413.609 150.147 411.839 152.097 413.788 153.867C415.347 155.282 418.763 154.723 420.19 154.763C420.271 156.444 420.844 159.563 422.392 162.216L420.383 169.362L426.575 171.229L431.795 163.522Z" fill="#FFCDBF"/>
<path d="M518.639 143.538C513.253 141.32 514.283 134.957 515.471 132.053C510.587 129.413 501.135 125.875 502.402 132.845C503.67 139.815 501.874 144.198 500.818 145.518C510.006 149.636 516.527 145.914 518.639 143.538Z" fill="#FFB09E"/>
<path d="M494.201 404.029L492.532 373.855L505.634 376.749L504.212 404.965C508.587 409.305 510.117 417.775 507.35 419.991V419.991C505.681 420.665 503.918 421.075 502.123 421.208L486.522 422.359C482.645 422.752 479.289 422.429 475.174 422.042C472.8 421.82 470.498 421.089 468.448 419.871V419.871C467.905 419.549 467.61 418.93 467.702 418.305C467.898 416.977 468.223 414.798 468.307 414.427C469.262 410.207 472.172 408.736 479.521 409.683C485.786 410.492 491.918 406.25 494.201 404.029Z" fill="#FFCDBE"/>
<mask id="mask5" mask-type="alpha" maskUnits="userSpaceOnUse" x="455" y="369" width="66" height="65">
<path d="M494.201 404.029L492.532 373.856L505.634 376.749L504.212 404.966C508.587 409.306 510.117 417.776 507.35 419.991V419.991C505.681 420.665 503.918 421.076 502.123 421.208L486.522 422.36C482.645 422.753 479.289 422.429 475.174 422.043C472.8 421.82 470.498 421.089 468.448 419.872V419.872C467.905 419.549 467.61 418.931 467.702 418.305C467.898 416.977 468.223 414.798 468.307 414.427C469.262 410.207 472.172 408.736 479.521 409.684C485.786 410.492 491.918 406.251 494.201 404.029Z" fill="#FFAD95"/>
</mask>
<g mask="url(#mask5)">
<path d="M478.174 414.379C475.113 411.514 480.081 409.582 482.948 408.974L470.675 405.326L465.837 410.574L460.267 421.134L497.627 425.381C502.4 422.844 511.983 417.681 512.133 417.327C512.321 416.886 511.673 411.655 507.045 413.341C502.417 415.026 482 417.961 478.174 414.379Z" fill="#830815"/>
<path d="M484.457 407.693C483.044 409.484 485.266 414.104 486.553 416.19C489.195 417.539 493.754 419.384 490.854 415.979C487.953 412.574 488.881 408.258 489.707 406.526C488.545 406.169 485.87 405.902 484.457 407.693Z" fill="#830815"/>
</g>
<path d="M538.563 403.027L529.394 374.232L542.803 373.754L548.49 401.428C553.812 404.534 557.413 412.352 555.289 415.19V415.19C553.842 416.26 552.238 417.099 550.533 417.676L535.717 422.697C532.062 424.048 528.732 424.574 524.651 425.231C522.297 425.609 519.886 425.478 517.596 424.812V424.812C516.989 424.636 516.549 424.111 516.481 423.483C516.339 422.148 516.108 419.957 516.097 419.576C515.964 415.252 518.414 413.099 525.766 412.177C532.034 411.391 536.909 405.75 538.563 403.027Z" fill="#FFCEBF"/>
<mask id="mask6" mask-type="alpha" maskUnits="userSpaceOnUse" x="497" y="367" width="71" height="70">
<path d="M538.563 403.027L529.393 374.232L542.802 373.754L548.489 401.428C553.811 404.534 557.413 412.352 555.289 415.19V415.19C553.842 416.26 552.237 417.099 550.533 417.676L535.717 422.697C532.061 424.048 528.731 424.574 524.65 425.231C522.297 425.609 519.885 425.478 517.596 424.812V424.812C516.989 424.636 516.548 424.111 516.481 423.483C516.338 422.148 516.108 419.957 516.096 419.576C515.964 415.252 518.413 413.099 525.765 412.177C532.034 411.391 536.909 405.75 538.563 403.027Z" fill="#FFCEBF"/>
</mask>
<g mask="url(#mask6)">
<path d="M525.637 417.062C521.957 415.054 526.283 411.939 528.906 410.633L516.11 410.174L512.741 416.466L509.992 428.084L547.225 422.843C551.211 419.192 559.196 411.794 559.253 411.415C559.324 410.94 557.388 406.038 553.329 408.828C549.27 411.619 530.238 419.571 525.637 417.062Z" fill="#830815"/>
<path d="M530.046 409.013C529.126 411.101 532.434 415.018 534.202 416.715C537.098 417.359 541.974 418.005 538.313 415.434C534.653 412.863 534.47 408.453 534.836 406.569C533.622 406.514 530.965 406.926 530.046 409.013Z" fill="#830815"/>
</g>
<path d="M451.083 399.619L481.332 222.187L530.092 217.221L554.924 406.392C506.164 424.09 465.38 409.251 451.083 399.619Z" fill="#C63636"/>
<mask id="mask7" mask-type="alpha" maskUnits="userSpaceOnUse" x="451" y="217" width="104" height="198">
<path d="M451.083 399.619L481.332 222.187L530.092 217.221L554.924 406.392C506.164 424.09 465.38 409.251 451.083 399.619Z" fill="#C63636"/>
</mask>
<g mask="url(#mask7)">
<path d="M423.091 403.683C423.452 406.211 536.864 440.253 558.987 409.101L517.879 410.46C508.905 410.756 499.933 409.843 491.203 407.744L470.912 402.867C463.29 401.035 458.364 393.642 459.608 385.902L485.847 222.639H475.011C473.205 222.639 422.639 400.523 423.091 403.683Z" fill="#AF3030"/>
<path d="M484.944 384.268C487.201 332.047 491.987 226.791 493.071 223.541H501.197L484.944 384.268Z" fill="#AF3030"/>
<path d="M514.742 349.504C514.441 310.376 513.116 230.403 510.227 223.541L514.742 221.283V349.504Z" fill="#AF3030"/>
<path d="M537.767 341.829L524.674 221.283L532.349 218.123L537.767 341.829Z" fill="#AF3030"/>
</g>
<path fill-rule="evenodd" clip-rule="evenodd" d="M577.95 198.258C572.532 184.171 549.205 163.794 539.122 156.721H477.721L460.564 186.068L432.572 162.139L424.446 172.072C441.151 186.519 454.785 204.939 464.176 206.384C473.567 207.829 479.978 196.452 483.138 188.325C484.041 206.836 479.693 216.78 480.43 220.832C481.333 225.798 481.333 224.895 483.138 225.798L532.35 228.507L541.38 237.536C554.172 226.851 583.367 212.344 577.95 198.258ZM532.35 228.507V178.392L556.279 202.321L532.35 228.507Z" fill="#F65D6D"/>
<mask id="mask8" mask-type="alpha" maskUnits="userSpaceOnUse" x="424" y="156" width="155" height="82">
<path fill-rule="evenodd" clip-rule="evenodd" d="M577.95 198.258C572.532 184.171 549.205 163.794 539.122 156.721H477.721L460.564 186.068L432.572 162.139L424.446 172.072C441.151 186.519 454.785 204.939 464.176 206.384C473.567 207.829 479.978 196.452 483.138 188.325C484.041 206.836 479.693 216.78 480.43 220.832C481.333 225.798 481.333 224.895 483.138 225.798L532.35 228.507L541.38 237.536C554.172 226.851 583.367 212.344 577.95 198.258ZM532.35 228.507V178.392L556.279 202.321L532.35 228.507Z" fill="#F65D6D"/>
</mask>
<g mask="url(#mask8)">
<rect x="479.526" y="188.777" width="47.8571" height="18.0593" rx="9.02964" fill="#DF4A5A"/>
<path d="M484.493 214.061L487.202 216.77M501.198 218.576L504.809 215.415M496.231 201.871L493.522 206.837M509.776 227.605L515.645 223.542M484.493 226.702L490.362 222.639M509.776 200.065L512.936 202.774M516.548 213.609C517.27 213.609 519.257 210.901 520.16 209.546M523.32 200.065L526.481 203.677M527.835 219.479L524.675 216.77M528.738 229.411L530.544 223.994M540.928 223.994L542.282 228.96M552.667 230.314L554.924 223.542M543.637 214.964L550.861 212.706M558.536 210.449L554.924 216.318M561.696 202.774L567.114 201.871M557.181 194.196C557.543 195.279 558.536 198.259 558.987 199.613M562.599 187.423L567.114 190.132M574.789 202.774L576.595 199.613M572.532 213.609L569.371 211.352M435.733 163.043C435.733 163.766 435.131 166.655 434.83 168.01M442.505 183.812L448.374 184.715M430.315 173.879V177.942M442.505 176.136L445.214 172.976M453.341 192.39L457.855 193.744M460.564 205.031L463.273 202.774M461.919 183.812L464.176 186.521M466.433 194.647L470.948 193.744M475.915 196.453L474.56 200.968" stroke="white" stroke-width="1.5" stroke-linecap="round"/>
</g>
<path d="M509.342 147.105L518.639 143.145C525.371 143.541 523.361 148.293 519.243 149.877C515.124 151.461 510.398 148.161 509.342 147.105C508.154 148.689 501.392 150.396 499.046 149.085C494.086 146.313 500.234 144.861 501.422 144.729L509.342 147.105Z" fill="white"/>
<path d="M535.49 118.039C536.03 114.569 533.202 112.727 531.422 113.985C534.27 93.8632 522.519 94.9062 511.48 92.0765C500.441 89.2469 495.222 101.524 494.154 110.642C493.086 119.759 492.73 133.593 506.261 135.794C517.086 137.555 524.299 128.442 526.436 123.831C528.929 124.145 534.714 123.031 535.49 118.039Z" fill="#FFCFBF"/>
<mask id="mask9" mask-type="alpha" maskUnits="userSpaceOnUse" x="493" y="91" width="44" height="46">
<path d="M536.405 117.855C536.945 114.385 533.2 112.726 531.419 113.983C534.268 93.8613 522.517 94.9042 511.478 92.0746C500.439 89.245 495.22 101.522 494.152 110.64C493.083 119.757 492.727 133.591 506.259 135.792C517.084 137.553 524.297 128.44 526.434 123.829C528.927 124.143 535.628 122.847 536.405 117.855Z" fill="#FFCFBF"/>
</mask>
<g mask="url(#mask9)">
<g filter="url(#filter0_f)">
<path d="M534.292 126.146C534.174 131.831 529.469 136.344 523.784 136.225C518.098 136.107 513.585 131.402 513.704 125.717C513.822 120.032 518.527 115.519 524.212 115.637C529.898 115.755 534.411 120.46 534.292 126.146Z" fill="#EF4646" fill-opacity="0.6"/>
<path d="M502.611 118.225C502.492 123.911 497.788 128.424 492.102 128.305C486.417 128.187 481.904 123.482 482.022 117.797C482.141 112.111 486.846 107.598 492.531 107.717C498.216 107.835 502.729 112.54 502.611 118.225Z" fill="#EF4646" fill-opacity="0.6"/>
</g>
</g>
<path d="M521.43 227.479C524.615 226.021 531.345 226.993 533.833 228.056L541.831 237.498C540.504 239.624 537.751 242.053 535.362 242.053C532.377 242.053 528.397 238.409 525.909 240.231C523.421 242.053 519.44 242.508 518.445 240.686C518.072 240.003 518.414 239.359 519.019 238.821C518.048 239.137 517.065 239.154 516.455 238.409C515.43 237.158 517.021 235.817 518.331 235.078C517.451 235.42 516.007 235.613 514.464 234.766C511.976 233.399 517.45 229.301 521.43 227.479Z" fill="#FFCEBF"/>
<mask id="mask10" mask-type="alpha" maskUnits="userSpaceOnUse" x="513" y="226" width="29" height="17">
<path d="M521.43 227.479C524.615 226.021 531.345 226.993 533.833 228.056L541.831 237.498C540.504 239.624 537.751 242.053 535.362 242.053C532.377 242.053 528.397 238.409 525.909 240.231C523.421 242.053 519.44 242.508 518.445 240.686C518.072 240.003 518.414 239.359 519.019 238.821C518.048 239.137 517.065 239.154 516.455 238.409C515.43 237.158 517.021 235.817 518.331 235.078C517.451 235.42 516.007 235.613 514.464 234.766C511.976 233.399 517.45 229.301 521.43 227.479Z" fill="#FFCEBF"/>
</mask>
<g mask="url(#mask10)">
<path d="M525.435 230.313C524.235 230.313 517.437 233.173 515.838 235.28V235.731L517.837 235.279L525.435 230.313Z" fill="#FF8C7F"/>
<path d="M528.234 233.473C526.635 233.021 519.57 236.784 517.837 238.891V239.794L528.234 233.473Z" fill="#FF8C7F"/>
</g>
<ellipse cx="502.202" cy="114.758" rx="1.50677" ry="2.64091" transform="rotate(3.78803 502.202 114.758)" fill="#3F3333"/>
<ellipse cx="513.3" cy="116.764" rx="1.50677" ry="2.64091" transform="rotate(9.60318 513.3 116.764)" fill="#3F3333"/>
<path d="M499.193 108.029C500.228 106.846 503.008 105.101 505.847 107.585M514.275 109.803C516.05 109.359 519.155 112.465 518.711 115.126" stroke="#3F3333" stroke-width="1.5" stroke-linecap="round"/>
<path d="M505.984 116.691C505.824 117.037 504.98 118.19 502.884 120.043C500.788 121.896 503.492 123.284 505.106 123.747" stroke="#FF877A" stroke-linecap="round"/>
<path d="M513.389 125.774C508.776 128.258 504.961 126.809 503.63 125.774C504.073 128.879 506.607 130.146 507.179 130.21C511.171 130.654 513.537 127.253 513.389 125.774Z" fill="white"/>
<path fill-rule="evenodd" clip-rule="evenodd" d="M495.339 97.2999C492.506 103.71 490.998 108.612 491.375 119.17C491.632 126.383 492 131.065 493.625 134.252C494.065 135.114 494.62 135.863 495.339 136.514C495.027 138.022 494.59 141.416 495.339 142.924C493.138 143.301 487.755 144.734 483.833 147.449C479.912 150.164 476.921 155.367 475.915 157.63L463.725 179.748C465.987 175.726 475.136 203.223 487.202 204.128C494.424 204.669 516.548 196.904 533.253 201.87C561.245 201.87 566.249 184.618 568.017 182.456C566.132 177.806 537.768 145.886 527.196 142.547C531.595 135.132 539.337 116.455 535.114 101.07C529.835 81.8403 503.818 81.0858 495.339 97.2999ZM493.625 116.907C493.625 110.874 495.141 106.098 495.899 104.464L500.424 96.9229L504.949 93.5294L521.54 98.8082L526.064 115.776C527.196 123.317 522.822 133.95 511.359 135.76C497.031 138.023 493.625 124.448 493.625 116.907Z" fill="#C63636"/>
<path fill-rule="evenodd" clip-rule="evenodd" d="M527.314 142.348C526.96 142.612 526.423 143.069 525.733 143.655C521.331 147.401 510.718 156.432 501.933 154.235C493.741 152.187 491.508 146.664 491.381 143.925C491.36 143.931 491.34 143.938 491.319 143.944C490.283 149.175 491.525 159.057 504.572 158.76C517.217 158.473 528.813 150.633 533.685 146.197C531.743 144.674 529.574 143.39 527.197 142.546C527.235 142.481 527.274 142.415 527.314 142.348ZM494.934 140.816C509.565 144.87 518.316 138.019 519.213 137.317L519.257 137.283L519.277 137.268C519.272 137.272 519.266 137.277 519.257 137.283C511.716 142.992 500.294 139.151 495.523 136.514C495.461 136.512 495.399 136.511 495.336 136.51C495.338 136.511 495.339 136.512 495.34 136.513C495.137 137.495 494.881 139.276 494.934 140.816Z" fill="#AF3030"/>
<path d="M507.21 95.414C499.065 95.414 495.018 106.726 494.013 112.382C496.275 75.8068 523.801 91.2666 525.686 104.463C527.109 114.424 526.44 123.694 526.44 123.694C526.817 105.972 517.391 95.414 507.21 95.414Z" fill="#A82B2B"/>
<path fill-rule="evenodd" clip-rule="evenodd" d="M402.223 121.899L423.693 128.871L422.806 131.605C422.033 131.243 421.088 131.471 420.573 132.189C419.992 133 420.178 134.128 420.989 134.709C421.208 134.866 421.45 134.967 421.698 135.015L420.626 138.318L399.155 131.346L402.223 121.899Z" fill="white"/>
<path d="M304.699 407.085L287.464 376.929L301.868 370.961L317.956 400.439C325.079 402.106 330.444 412.271 330.549 418.135L288.504 440.099C287.985 440.37 287.344 440.141 287.152 439.588C285.245 434.085 285.336 425.55 293.371 421.932C300.209 418.853 303.773 410.751 304.699 407.085Z" fill="#F28B67"/>
<mask id="mask11" mask-type="alpha" maskUnits="userSpaceOnUse" x="262" y="367" width="71" height="74">
<path d="M304.699 407.086L287.464 376.929L301.867 370.962L317.956 400.439C325.078 402.107 330.444 412.272 330.548 418.136L288.503 440.1C287.985 440.371 287.344 440.141 287.152 439.589C285.245 434.086 285.336 425.551 293.371 421.933C300.209 418.854 303.772 410.752 304.699 407.086Z" fill="#F28B67"/>
</mask>
<g mask="url(#mask11)">
<path d="M313.25 404.982C314.501 399.815 317.025 399.451 318.131 399.915L325.586 402.973L331.878 415.962L284.239 441.835C284.526 438.926 283.779 427.877 283.779 427.178C283.778 426.48 297.145 414.656 303.829 408.831C306.448 409.701 311.999 410.149 313.25 404.982Z" fill="#373232"/>
<path d="M297.679 427.91C307.098 423.188 312.071 412.732 313.597 403.935C313.616 403.828 313.631 403.724 313.644 403.622C313.502 404.033 313.37 404.486 313.25 404.983C312.715 407.193 311.965 406.331 310.764 404.95C309.157 403.102 306.742 400.324 302.95 402.725C298.834 406.312 292.517 414.49 288.271 420.408L287.096 426.534L297.679 427.91Z" fill="#5B5353"/>
<path d="M330.588 416.143C334.627 422.645 292.928 442.168 284.643 442.61L284.514 426.967L288.089 426.048C290.098 424.498 297.122 426.033 302.617 430.755L330.884 415.002L331.004 415.926L330.588 416.143Z" fill="white"/>
<path d="M302.698 424.301C301.883 423.254 297.034 419.136 293.545 420.536M307.111 419.53C306.295 418.483 302.65 415.709 299.998 415.992M310.714 413.209C310.189 412.162 305.402 410.226 302.436 411.277" stroke="white" stroke-width="2" stroke-linecap="round"/>
</g>
<path d="M304.178 409.53C301.154 410.464 295.035 411.494 294.752 408.144C294.469 404.793 300.918 407.672 304.178 409.53ZM304.178 409.53C303.187 407.553 301.868 403.703 304.521 404.119C307.174 404.535 305.398 407.9 304.178 409.53Z" stroke="black"/>
<path d="M382.119 315.206L349.209 326.312L346.126 311.029L378.15 300.917C381.158 294.249 392.166 290.941 397.94 291.968L411.398 337.455C411.564 338.016 411.215 338.601 410.636 338.683C404.869 339.495 396.511 337.762 394.508 329.181C392.803 321.878 385.538 316.821 382.119 315.206Z" fill="#F28B67"/>
<mask id="mask12" mask-type="alpha" maskUnits="userSpaceOnUse" x="343" y="290" width="69" height="64">
<path d="M382.119 315.206L349.209 326.313L346.126 311.03L378.15 300.918C381.158 294.25 392.166 290.942 397.94 291.968L411.398 337.455C411.564 338.016 411.215 338.602 410.636 338.683C404.869 339.495 396.511 337.762 394.508 329.181C392.803 321.878 385.538 316.822 382.119 315.206Z" fill="#F28B67"/>
</mask>
<g mask="url(#mask12)">
<path d="M381.701 306.41C376.872 304.188 377.001 301.641 377.669 300.645L382.106 293.918L396.063 290.244L412.279 341.974C409.48 341.132 398.493 339.737 397.808 339.604C397.123 339.47 388.094 324.076 383.665 316.396C385.023 313.993 386.531 308.633 381.701 306.41Z" fill="#373232"/>
<path d="M401.202 326.105C398.382 315.953 389.08 309.06 380.741 305.868C380.64 305.829 380.54 305.794 380.442 305.762C380.819 305.98 381.238 306.197 381.702 306.411C383.768 307.362 382.778 307.931 381.191 308.844C379.068 310.064 375.878 311.9 377.503 316.083C380.231 320.813 387.04 328.586 392.029 333.893L397.814 336.225L401.202 326.105Z" fill="#5B5353"/>
<path d="M395.992 291.545C403.15 288.834 414.28 333.512 413.118 341.727L397.743 338.841L397.529 335.156C396.395 332.886 399.253 326.29 404.945 321.807L394.929 291.035L395.859 291.096L395.992 291.545Z" fill="white"/>
<path d="M398.627 320.484C397.443 321.083 392.469 325.048 393.171 328.742M394.795 315.236C393.611 315.835 390.187 318.878 389.954 321.535M389.286 310.483C388.158 310.797 385.337 315.122 385.796 318.234" stroke="white" stroke-width="2" stroke-linecap="round"/>
</g>
<path d="M384.417 316.188C384.752 319.335 384.585 325.538 381.242 325.171C377.9 324.803 381.966 319.029 384.417 316.188ZM384.417 316.188C382.287 316.78 378.255 317.333 379.174 314.809C380.093 312.286 383.052 314.677 384.417 316.188Z" stroke="black"/>
<path d="M274.948 162.516C279.47 160.236 277.984 155.301 276.676 153.118C282.105 149.48 292.824 143.032 291.028 150.26C289.232 157.488 292.468 161.311 294.465 161.83C283.695 169.421 276.966 165.45 274.948 162.516Z" fill="#E37651"/>
<path d="M320.185 147.613C323.669 142.906 304.846 127.291 296.738 118.928L293.535 139.51C296.281 143.507 301.172 147.584 303.536 149.828C306.49 152.634 315.83 153.496 320.185 147.613Z" fill="#3146CC"/>
<path d="M301.766 124.384C298.79 122.246 297.216 124.486 296.801 125.873L295.646 136.311C296.543 136.119 298.78 135.406 300.554 134.088C302.772 132.44 305.486 127.057 301.766 124.384Z" fill="#E37651"/>
<path d="M269.209 148.899C263.513 144.012 260.222 125.189 259.288 116.389C275.16 98.7376 294.149 108.558 295.178 109.732C296.465 111.199 301.095 130.806 293.905 144.272C286.715 157.737 276.33 155.008 269.209 148.899Z" fill="#F3956C"/>
<path d="M278.658 108.648C262.471 109.885 259.896 122.515 261.21 129.459C258.791 118.294 255.465 102.202 276.18 96.7043C297.517 91.0416 303.179 113.688 302.625 125.211C301.237 123.439 298.615 123.952 297.866 124.401C297.301 117.008 294.845 107.411 278.658 108.648Z" fill="#4B3838"/>
<path d="M302.352 131.886C300.364 134.543 297.811 135.625 296.783 135.834C295.613 141.011 294.165 144.253 292.858 145.919C299.805 139.517 300.076 136.235 302.352 131.886Z" fill="#4B3838"/>
<path d="M294.67 108.205C285.022 104.872 267.234 107.693 261.266 111.541L259.705 121.837C259.705 121.837 264.919 108.131 296.792 115.479L294.67 108.205Z" fill="#3D58FF"/>
<g opacity="0.7">
<mask id="mask13" mask-type="alpha" maskUnits="userSpaceOnUse" x="258" y="104" width="43" height="52">
<path d="M269.209 148.899C263.513 144.012 260.222 125.189 259.288 116.389C275.16 98.7376 294.149 108.558 295.178 109.732C296.465 111.199 301.095 130.806 293.905 144.272C286.715 157.737 276.33 155.008 269.209 148.899Z" fill="#F7A582"/>
</mask>
<g mask="url(#mask13)">
<g filter="url(#filter1_f)">
<circle cx="297.38" cy="138.526" r="10.1466" transform="rotate(-4.37129 297.38 138.526)" fill="#EF4646" fill-opacity="0.6"/>
</g>
<g filter="url(#filter2_f)">
<circle cx="257.69" cy="141.559" r="10.1466" transform="rotate(-4.37129 257.69 141.559)" fill="#EF4646" fill-opacity="0.6"/>
</g>
</g>
</g>
<path d="M302.641 119.353L296.457 118.14C291.697 105.531 278.989 99.4788 271.624 103.952C267.052 106.728 263.966 109.735 261.711 115.922L260.174 123.813C260.174 123.813 259.139 118.474 259.099 116.998C259.254 101.603 265.215 96.0475 275.824 93.508C286.432 90.9684 295.134 96.6668 298.226 103.015C300.7 108.094 303.347 116.816 302.641 119.353Z" fill="#3D58FF"/>
<ellipse cx="271.017" cy="130.554" rx="1.74857" ry="3.06" transform="rotate(-5.56431 271.017 130.554)" fill="#3F3333"/>
<ellipse cx="271.017" cy="130.554" rx="1.74857" ry="3.06" transform="rotate(-5.56431 271.017 130.554)" fill="#3F3333"/>
<ellipse cx="283.283" cy="130.235" rx="1.74857" ry="3.06" transform="rotate(-5.56431 283.283 130.235)" fill="#3F3333"/>
<ellipse cx="283.283" cy="130.235" rx="1.74857" ry="3.06" transform="rotate(-5.56431 283.283 130.235)" fill="#3F3333"/>
<path d="M266.635 126.147C266.596 124.248 268.439 121.228 272.472 122.943M280.781 122.573C281.173 122.095 284.877 119.539 287.954 124.07" stroke="#3F3333" stroke-width="1.5" stroke-linecap="round"/>
<path d="M275.863 132.276C275.76 132.726 275.092 134.284 273.241 136.924C271.39 139.564 274.493 140.755 276.276 141.02" stroke="#EE6549" stroke-linecap="round"/>
<path d="M286.519 140.901C282.333 144.823 277.637 144.402 275.812 143.701C276.547 145.24 278.958 148.05 282.719 146.981C286.48 145.912 286.82 142.482 286.519 140.901Z" fill="#D74848"/>
<path d="M286.552 142.634C283.642 145 279.188 145.31 276.75 145.104C276.322 144.611 276.008 144.111 275.812 143.701C277.637 144.402 282.333 144.823 286.519 140.901C286.606 141.358 286.639 141.97 286.552 142.634Z" fill="white"/>
<path d="M330.154 221.679C318.9 225.948 312.161 206.045 307.588 192.918L320.42 183.184C326.467 192.623 342.986 216.812 330.154 221.679Z" fill="#F3946C"/>
<mask id="mask14" mask-type="alpha" maskUnits="userSpaceOnUse" x="308" y="183" width="27" height="40">
<path d="M330.154 221.679C318.9 225.948 312.603 205.602 308.031 192.476L320.42 183.184C326.467 192.623 342.986 216.812 330.154 221.679Z" fill="#F3946C"/>
</mask>
<g mask="url(#mask14)">
<path d="M315.111 191.591C332.367 201.325 331.924 184.068 327.942 180.971L321.305 184.511L309.358 188.493L321.305 209.732L315.111 191.591Z" fill="#E37651"/>
</g>
<path d="M315.995 166.813C311.125 158.044 294.745 161.363 293.872 161.739L307.842 195.573L329.269 186.724C326.941 181.837 320.42 174.778 315.995 166.813Z" fill="#262626"/>
<mask id="mask15" mask-type="alpha" maskUnits="userSpaceOnUse" x="293" y="160" width="37" height="36">
<path d="M315.995 166.813C311.125 158.044 294.745 161.363 293.872 161.739L307.842 195.573L329.269 186.724C326.941 181.837 320.42 174.778 315.995 166.813Z" fill="#262626"/>
</mask>
<g mask="url(#mask15)">
<path d="M301.836 189.378C303.606 188.316 319.388 181.266 327.057 177.874" stroke="white" stroke-width="2"/>
</g>
<path d="M239.005 131.415C240.333 136.282 254.049 150.827 263.784 158.349L255.517 168.806C244.012 161.284 231.358 153.319 224.986 139.16C218.615 125.001 242.103 93.4237 242.545 88.114C241.66 86.0358 239.89 80.9743 242.102 76.5495C243.846 73.0615 250.067 71.8648 250.51 73.3928C250.952 72.066 255.288 73.0388 254.934 75.1626C255.377 73.8341 258.386 75.1626 258.032 76.9325C259.802 76.0489 263.784 81.8582 258.916 84.5131C256.651 85.7485 258.474 90.7077 250.952 93.805C245.79 105.604 237.224 124.884 239.005 131.415Z" fill="#F3946C"/>
<mask id="mask16" mask-type="alpha" maskUnits="userSpaceOnUse" x="223" y="72" width="38" height="97">
<path d="M237.818 135.62C239.145 140.487 251.092 151.549 260.826 159.071L255.517 168.805C244.012 161.283 231.358 153.318 224.986 139.159C218.614 125 244.013 91.3723 244.455 86.0626C243.57 83.9844 242.987 77.7778 244.455 75.6049C246.638 72.3735 250.067 71.8638 250.509 73.3917C250.952 72.0649 255.288 73.0377 254.934 75.1616C255.376 73.8331 258.385 75.1616 258.031 76.9315C259.801 76.0478 263.341 80.9136 258.474 83.5685C256.209 84.8039 257.589 89.7631 252.42 90.4873C247.258 102.287 236.037 129.089 237.818 135.62Z" fill="#F3946C"/>
</mask>
<g mask="url(#mask16)">
<path d="M246.969 76.5481C246.969 78.261 244.137 81.8575 246.969 81.8575C249.801 81.8575 251.296 75.6728 250.51 73.0083C250.903 73.1986 252.575 74.9263 251.395 77.8755C250.733 79.5297 250.51 79.6454 249.624 81.4151C250.569 81.986 253.607 81.8578 254.049 80.0876L254.934 74.778C256.261 73.4508 255.819 77.433 254.934 80.5301C254.347 82.5849 251.689 82.7375 251.689 82.7375C255.819 83.3003 257.589 83.1852 258.031 76.9906C258.228 73.5648 259.359 70.5063 259.359 78.7408C259.359 82.1666 255.837 84.7053 253.459 83.8795C253.076 84.0029 252.8 84.0888 252.584 84.164C252.447 84.2205 252.31 84.2771 252.185 84.3254C251.754 84.5391 251.553 84.83 250.51 85.8398C249.392 86.9216 248.911 89.1861 249.138 89.7451C249.152 89.771 249.167 89.7966 249.182 89.822C249.165 89.802 249.15 89.7762 249.138 89.7451C248.214 88.0908 248.816 85.5268 251.099 83.8795C250.766 83.756 249.446 82.7271 249.181 82.3C248.052 82.8439 246.019 83.6428 245.199 82.5849C243.783 80.7578 246.379 77.4997 246.969 76.5481Z" fill="#E37651"/>
</g>
<path d="M266.623 336.722C263.083 328.58 265.148 266.074 266.623 235.838L295.384 228.316L304.676 273.448C301.579 285.69 292.544 302.651 292.544 327.872C292.544 331.891 300.405 357.864 308.3 376.987C310.317 381.871 312.335 386.308 314.225 389.818L296.969 395.571C294.99 391.894 292.637 387.483 290.126 382.739C280.849 365.211 269.409 343.129 266.623 336.722Z" fill="#EAD1C9"/>
<path d="M374.865 320.429C346.747 333.088 293.39 348.262 289.004 328.315C285.353 311.705 281.04 260.174 281.04 260.174C281.04 260.174 277.943 250.883 270.863 237.165C277.677 239.884 313.99 229.875 313.341 239.378C312.691 248.88 316.438 259.289 313.341 302.896L370.144 302.206L374.865 320.429Z" fill="#ECDBD3"/>
<path d="M366.125 325.583C365.238 325.799 364.333 325.305 364.034 324.442L357.318 305.047C357.03 304.216 357.396 303.3 358.178 302.896L366.66 298.511C367.611 298.019 368.778 298.478 369.139 299.485L376.842 320.957C377.197 321.946 376.617 323.025 375.596 323.274L366.125 325.583Z" fill="#ECDBD3"/>
<mask id="mask17" mask-type="alpha" maskUnits="userSpaceOnUse" x="237" y="213" width="147" height="155">
<path d="M374.864 320.429C346.747 333.088 293.389 348.262 289.004 328.315C285.353 311.705 281.04 260.174 281.04 260.174C281.04 260.174 277.942 250.883 270.862 237.165C277.676 239.884 313.99 229.875 313.34 239.378C312.69 248.88 316.437 259.289 313.34 302.896L370.144 302.206L374.864 320.429Z" fill="#ECDBD3"/>
<path d="M366.125 325.583C365.238 325.799 364.332 325.305 364.033 324.442L357.318 305.047C357.03 304.216 357.396 303.3 358.177 302.896L366.66 298.511C367.611 298.019 368.777 298.478 369.139 299.485L376.842 320.957C377.197 321.946 376.616 323.025 375.595 323.274L366.125 325.583Z" fill="#ECDBD3"/>
</mask>
<g mask="url(#mask17)">
<path d="M361.127 315.04C360.685 310.321 359.8 300.793 359.8 300.439L355.375 298.669L361.127 315.04Z" fill="#EAD1C9"/>
<path d="M361.57 320.35C362.16 322.415 363.34 326.722 363.34 327.43L365.994 326.545L361.57 320.35Z" fill="#EAD1C9"/>
<path d="M315.553 250.882C300.332 256.899 296.821 246.31 296.969 240.263L312.455 236.28C319.83 238.64 330.774 244.864 315.553 250.882Z" fill="#EAD1C9"/>
</g>
<path d="M274.844 162.387C277.352 164.6 284.756 167.608 294.313 161.945C295.346 161.945 297.765 162.299 299.18 163.715C300.95 165.485 313.34 221.679 314.224 238.935C299.623 240.705 268.915 243.714 262.898 241.59C263.391 225.106 259.447 198.561 261.129 180.971L240.775 166.37L251.837 146.901L273.075 161.502C273.96 161.945 274.519 161.899 274.844 162.387Z" fill="#373232"/>
<mask id="mask18" mask-type="alpha" maskUnits="userSpaceOnUse" x="240" y="146" width="75" height="97">
<path d="M274.844 162.387C277.352 164.6 284.756 167.608 294.313 161.945C295.346 161.945 297.765 162.299 299.18 163.715C300.95 165.485 313.34 221.679 314.224 238.935C299.623 240.705 268.915 243.714 262.898 241.59C263.391 225.106 259.447 198.561 261.129 180.971L240.775 166.37L251.837 146.901L273.075 161.502C273.96 161.945 274.519 161.899 274.844 162.387Z" fill="#373232"/>
</mask>
<g mask="url(#mask18)">
<path d="M245.2 173.449C245.554 172.741 253.312 157.225 257.146 149.556" stroke="white" stroke-width="2"/>
</g>
<path d="M299.299 184.404C301.954 188.386 303.281 190.599 305.366 192.945C320.683 193.781 318.481 180.988 316.833 178.86C314.711 176.119 314.783 175.111 312.217 174.282C310.885 173.852 310.68 175.774 311.298 176.677C310.566 175.786 310.803 175.998 309.918 175.113C307.706 172.9 304.739 174.522 304.609 176.44C301.279 176.187 300.818 177.888 301.069 179.538C299.919 179.607 297.06 181.046 299.299 184.404Z" fill="#F3946C"/>
<path fill-rule="evenodd" clip-rule="evenodd" d="M311.004 175.076C310.929 175.449 310.962 175.886 311.092 176.261C312.793 178.133 314.194 182.39 314.695 184.35C316.078 180.765 312.972 176.83 311.004 175.076ZM301.011 178.778C301.008 179.027 301.03 179.283 301.069 179.538C300.8 179.554 300.439 179.645 300.071 179.818C301.117 180.761 302.332 182.163 303.486 183.495L303.486 183.495L303.486 183.495C304.566 184.741 305.592 185.925 306.378 186.616C305.066 182.266 302.758 179.409 301.011 178.778ZM304.609 176.43C306.679 177.476 309.337 180.338 310.008 184.746C310.658 182.448 311.08 177.693 305.207 175.084C304.864 175.474 304.645 175.942 304.609 176.43Z" fill="#E37651"/>
<path d="M290.277 388.862C290.005 387.867 290.535 386.828 291.5 386.464L310.32 379.359C311.25 379.008 312.296 379.393 312.777 380.263L317.171 388.217C317.756 389.275 317.275 390.607 316.148 391.047L295.38 399.152C294.274 399.584 293.037 398.962 292.724 397.816L290.277 388.862Z" fill="#EAD1C9"/>
<defs>
<filter id="filter0_f" x="462.02" y="87.7144" width="92.2745" height="68.5134" filterUnits="userSpaceOnUse" color-interpolation-filters="sRGB">
<feFlood flood-opacity="0" result="BackgroundImageFix"/>
<feBlend mode="normal" in="SourceGraphic" in2="BackgroundImageFix" result="shape"/>
<feGaussianBlur stdDeviation="10" result="effect1_foregroundBlur"/>
</filter>
<filter id="filter1_f" x="266.49" y="107.635" width="61.7808" height="61.7808" filterUnits="userSpaceOnUse" color-interpolation-filters="sRGB">
<feFlood flood-opacity="0" result="BackgroundImageFix"/>
<feBlend mode="normal" in="SourceGraphic" in2="BackgroundImageFix" result="shape"/>
<feGaussianBlur stdDeviation="10" result="effect1_foregroundBlur"/>
</filter>
<filter id="filter2_f" x="226.8" y="110.669" width="61.7808" height="61.7808" filterUnits="userSpaceOnUse" color-interpolation-filters="sRGB">
<feFlood flood-opacity="0" result="BackgroundImageFix"/>
<feBlend mode="normal" in="SourceGraphic" in2="BackgroundImageFix" result="shape"/>
<feGaussianBlur stdDeviation="10" result="effect1_foregroundBlur"/>
</filter>
</defs>
</svg>
